/* XPM */
static char *result[] = {
/* columns rows colors chars-per-pixel */
"32 32 4 1 ",
"  c black",
". c blue",
"X c white",
"o c None",
/* pixels */
"oooooooooooo        oooooooooooo",
"ooooooooo   XXXXXXXX   ooooooooo",
"oooooooo XXXXXXXXXXXXXX oooooooo",
"oooooo  XXXXXXXXXXXXXXXX  oooooo",
"ooooo XXXXXXXXXXXXXXXXXXXX ooooo",
"oooo XXXXXXXXXXXXXXXXXXXXXX oooo",
"ooo XXXXXXXXXXXXXXXXXXXXXXXX ooo",
"ooo XXXXXXXXXXXXXXXXXXXXXXXX ooo",
"oo XXXXXXXXXXXXXXXXXXXXXXXXXX oo",
"o XXXXXXXXXXXXXXXXXXXXXXXXXXXX o",
"o XXXXXXXXXXXXXXXXXXXXXXXXXXXX o",
"o XXXXXXXX....XXXXXXX....XXXXX o",
" XXXXXXXXX....XXXXXXX....XXXXXX ",
" XXXXXXXXX....XXXXXXX....XXXXXX ",
" XXXXXXXXX....XXXXXXX....XXXXXX ",
" XXXXXXXXXXXXXXXXXXXXXXXXXXXXXX ",
" XXXXXXXXXXXXXXXXXXXXXXXXXXXXXX ",
" XXXXXXXXXXXXXXXXXXXXXXXXXXXXXX ",
" XXXXXXXXXXXXXXXXXXXXXXXXXXXXXX ",
" XXXXXXXXXXXXXXXXXXXXXXXXXXXXXX ",
" XXXXXXXXXXXXXXXXXXXXXXXXXXXXXX ",
" XXXXXXXXXXXXXXXXXXXXXXXXXXXXXX ",
" XXXXXXXX.X.X.X.X.X.X.X.XXXXXXX ",
" XXXXXXXXX.X.X.X.X.X.X.X.XXXXXX ",
" XXXXXXXXXXXXXXXXXXXXXXXXXXXXXX ",
" XXXXXXXXXXXXXXXXXXXXXXXXXXXXXX ",
" XXXXXXXXXXXXXXXXXXXXXXXXXXXXXX ",
" XXXXXXXXXXXXXXXXXXXXXXXXXXXXXX ",
" XXXX XXXX XXXX XXXX XXX XXX XX ",
"o XX o XX o XX o XX o X o X o X ",
"oo  ooo  ooo  ooo  ooo ooo ooo o",
"oooooooooooooooooooooooooooooooo"
};
