/* XPM */
static char *result[] = {
/* columns rows colors chars-per-pixel */
"32 32 3 1 ",
"  c black",
". c #f2fa02",
"X c None",
/* pixels */
"      ....................      ",
"    ..                    ..    ",
"   .                        .   ",
"  .     ................     .  ",
" .    ..                ..    . ",
" .   .                    .   . ",
".   .                      .   .",
".   .                      .   .",
".  .                        .  .",
".  .                        .  .",
".  .                        .  .",
".  .                        .  .",
".  .                        .  .",
".  .                        .  .",
".  .                        .  .",
".  .                        .  .",
".  .                        .  .",
".  .                        .  .",
".  .                        .  .",
".  .                        .  .",
".  .                        .  .",
".  .                        .  .",
".  .                        .  .",
".  .                        .  .",
".   .                      .   .",
".   .                      .   .",
" .   .                    .   . ",
" .    ..                ..    . ",
"  .     ................     .  ",
"   .                        .   ",
"    ..                    ..    ",
"      ....................      "
};
